  0
SECTION
  2
HEADER
  9
$ACADVER
  1
AC1009
  9
$INSBASE
 10
0.0
 20
0.0
 30
0.0
  9
$EXTMIN
 10
0.0
 20
0.0
 30
0.0
  9
$EXTMAX
 10
0.0
 20
0.0
 30
0.0
  0
ENDSEC
  0
SECTION
  2
TABLES
  0
TABLE
  2
VPORT
 70
0
  0
ENDTAB
  0
TABLE
  2
LTYPE
 70
1
  0
LTYPE
  2
CONTINUOUS
 70
0
  3
Solid line
 72
65
 73
0
 40
0.0
  0
ENDTAB
  0
TABLE
  2
LAYER
 70
1
  0
LAYER
  2
0
 70
64
 62
7
  6
continuous
  0
ENDTAB
  0
TABLE
  2
STYLE
 70
1
  0
STYLE
  2
STANDARD
 70
0
 40
0
 41
1.0
 50
0.0
 71
0
 42
1
 3
ARIAL.TTF
 4

  0
ENDTAB
  0
TABLE
  2
VIEW
 70
0
  0
ENDTAB
  0
ENDSEC
  0
SECTION
  2
BLOCKS
  0
ENDSEC
  0
SECTION
  2
ENTITIES
  0
POLYLINE
  8
0
 62
0
 70
1
 66
1
 10
0.0
 20
0.0
 30
0.0
  0
VERTEX
  8
0
 10
78.4125
 20
-50.0
 30
0.0
  0
VERTEX
  8
0
 10
78.4125
 20
-54.9784615385
 30
0.0
  0
VERTEX
  8
0
 10
78.4125
 20
-59.9569230769
 30
0.0
  0
VERTEX
  8
0
 10
78.4125
 20
-64.9353846154
 30
0.0
  0
VERTEX
  8
0
 10
78.4125
 20
-69.9138461538
 30
0.0
  0
VERTEX
  8
0
 10
78.4125
 20
-74.8923076923
 30
0.0
  0
VERTEX
  8
0
 10
78.4125
 20
-79.8707692308
 30
0.0
  0
VERTEX
  8
0
 10
78.4125
 20
-84.8492307692
 30
0.0
  0
VERTEX
  8
0
 10
78.4125
 20
-89.8276923077
 30
0.0
  0
VERTEX
  8
0
 10
78.4125
 20
-94.8061538462
 30
0.0
  0
VERTEX
  8
0
 10
78.4125
 20
-99.7846153846
 30
0.0
  0
VERTEX
  8
0
 10
78.4125
 20
-104.763076923
 30
0.0
  0
VERTEX
  8
0
 10
78.4125
 20
-109.741538462
 30
0.0
  0
VERTEX
  8
0
 10
78.4125
 20
-114.72
 30
0.0
  0
VERTEX
  8
0
 10
78.4125
 20
-119.698461538
 30
0.0
  0
VERTEX
  8
0
 10
78.4125
 20
-124.676923077
 30
0.0
  0
VERTEX
  8
0
 10
78.4125
 20
-129.655384615
 30
0.0
  0
VERTEX
  8
0
 10
78.4125
 20
-134.633846154
 30
0.0
  0
VERTEX
  8
0
 10
78.4125
 20
-139.612307692
 30
0.0
  0
VERTEX
  8
0
 10
78.4125
 20
-144.590769231
 30
0.0
  0
VERTEX
  8
0
 10
78.4125
 20
-149.569230769
 30
0.0
  0
VERTEX
  8
0
 10
78.4125
 20
-154.547692308
 30
0.0
  0
VERTEX
  8
0
 10
78.4125
 20
-159.526153846
 30
0.0
  0
VERTEX
  8
0
 10
78.4125
 20
-164.504615385
 30
0.0
  0
VERTEX
  8
0
 10
78.4125
 20
-169.483076923
 30
0.0
  0
VERTEX
  8
0
 10
78.4125
 20
-174.461538462
 30
0.0
  0
VERTEX
  8
0
 10
78.4125
 20
-179.44
 30
0.0
  0
VERTEX
  8
0
 10
81.5875
 20
-179.44
 30
0.0
  0
VERTEX
  8
0
 10
81.5875
 20
-174.461538462
 30
0.0
  0
VERTEX
  8
0
 10
81.5875
 20
-169.483076923
 30
0.0
  0
VERTEX
  8
0
 10
81.5875
 20
-164.504615385
 30
0.0
  0
VERTEX
  8
0
 10
81.5875
 20
-159.526153846
 30
0.0
  0
VERTEX
  8
0
 10
81.5875
 20
-154.547692308
 30
0.0
  0
VERTEX
  8
0
 10
81.5875
 20
-149.569230769
 30
0.0
  0
VERTEX
  8
0
 10
81.5875
 20
-144.590769231
 30
0.0
  0
VERTEX
  8
0
 10
81.5875
 20
-139.612307692
 30
0.0
  0
VERTEX
  8
0
 10
81.5875
 20
-134.633846154
 30
0.0
  0
VERTEX
  8
0
 10
81.5875
 20
-129.655384615
 30
0.0
  0
VERTEX
  8
0
 10
81.5875
 20
-124.676923077
 30
0.0
  0
VERTEX
  8
0
 10
81.5875
 20
-119.698461538
 30
0.0
  0
VERTEX
  8
0
 10
81.5875
 20
-114.72
 30
0.0
  0
VERTEX
  8
0
 10
81.5875
 20
-109.741538462
 30
0.0
  0
VERTEX
  8
0
 10
81.5875
 20
-104.763076923
 30
0.0
  0
VERTEX
  8
0
 10
81.5875
 20
-99.7846153846
 30
0.0
  0
VERTEX
  8
0
 10
81.5875
 20
-94.8061538462
 30
0.0
  0
VERTEX
  8
0
 10
81.5875
 20
-89.8276923077
 30
0.0
  0
VERTEX
  8
0
 10
81.5875
 20
-84.8492307692
 30
0.0
  0
VERTEX
  8
0
 10
81.5875
 20
-79.8707692308
 30
0.0
  0
VERTEX
  8
0
 10
81.5875
 20
-74.8923076923
 30
0.0
  0
VERTEX
  8
0
 10
81.5875
 20
-69.9138461538
 30
0.0
  0
VERTEX
  8
0
 10
81.5875
 20
-64.9353846154
 30
0.0
  0
VERTEX
  8
0
 10
81.5875
 20
-59.9569230769
 30
0.0
  0
VERTEX
  8
0
 10
81.5875
 20
-54.9784615385
 30
0.0
  0
VERTEX
  8
0
 10
81.5875
 20
-50.0
 30
0.0
  0
VERTEX
  8
0
 10
86.0
 20
-50.0
 30
0.0
  0
VERTEX
  8
0
 10
86.2222222222
 20
-54.7940740741
 30
0.0
  0
VERTEX
  8
0
 10
86.4444444444
 20
-59.5881481481
 30
0.0
  0
VERTEX
  8
0
 10
86.6666666667
 20
-64.3822222222
 30
0.0
  0
VERTEX
  8
0
 10
86.8888888889
 20
-69.1762962963
 30
0.0
  0
VERTEX
  8
0
 10
87.1111111111
 20
-73.9703703704
 30
0.0
  0
VERTEX
  8
0
 10
87.3333333333
 20
-78.7644444444
 30
0.0
  0
VERTEX
  8
0
 10
87.5555555556
 20
-83.5585185185
 30
0.0
  0
VERTEX
  8
0
 10
87.7777777778
 20
-88.3525925926
 30
0.0
  0
VERTEX
  8
0
 10
88.0
 20
-93.1466666667
 30
0.0
  0
VERTEX
  8
0
 10
91.0
 20
-93.1466666667
 30
0.0
  0
VERTEX
  8
0
 10
94.0
 20
-93.1466666667
 30
0.0
  0
VERTEX
  8
0
 10
94.0
 20
-97.4613333333
 30
0.0
  0
VERTEX
  8
0
 10
94.0
 20
-101.776
 30
0.0
  0
VERTEX
  8
0
 10
90.175
 20
-99.6186666667
 30
0.0
  0
VERTEX
  8
0
 10
86.35
 20
-97.4613333333
 30
0.0
  0
VERTEX
  8
0
 10
87.6444444444
 20
-101.776
 30
0.0
  0
VERTEX
  8
0
 10
88.9388888889
 20
-106.090666667
 30
0.0
  0
VERTEX
  8
0
 10
90.2333333333
 20
-110.405333333
 30
0.0
  0
VERTEX
  8
0
 10
91.5277777778
 20
-114.72
 30
0.0
  0
VERTEX
  8
0
 10
92.8222222222
 20
-119.034666667
 30
0.0
  0
VERTEX
  8
0
 10
94.1166666667
 20
-123.349333333
 30
0.0
  0
VERTEX
  8
0
 10
95.4111111111
 20
-127.664
 30
0.0
  0
VERTEX
  8
0
 10
96.7055555556
 20
-131.978666667
 30
0.0
  0
VERTEX
  8
0
 10
98.0
 20
-136.293333333
 30
0.0
  0
VERTEX
  8
0
 10
101.0
 20
-136.293333333
 30
0.0
  0
VERTEX
  8
0
 10
104.0
 20
-136.293333333
 30
0.0
  0
VERTEX
  8
0
 10
104.0
 20
-140.608
 30
0.0
  0
VERTEX
  8
0
 10
104.0
 20
-144.922666667
 30
0.0
  0
VERTEX
  8
0
 10
100.233333333
 20
-143.484444444
 30
0.0
  0
VERTEX
  8
0
 10
96.4666666667
 20
-142.046222222
 30
0.0
  0
VERTEX
  8
0
 10
92.7
 20
-140.608
 30
0.0
  0
VERTEX
  8
0
 10
94.4
 20
-144.922666667
 30
0.0
  0
VERTEX
  8
0
 10
96.1
 20
-149.237333333
 30
0.0
  0
VERTEX
  8
0
 10
97.8
 20
-153.552
 30
0.0
  0
VERTEX
  8
0
 10
99.5
 20
-157.866666667
 30
0.0
  0
VERTEX
  8
0
 10
101.2
 20
-162.181333333
 30
0.0
  0
VERTEX
  8
0
 10
102.9
 20
-166.496
 30
0.0
  0
VERTEX
  8
0
 10
104.6
 20
-170.810666667
 30
0.0
  0
VERTEX
  8
0
 10
106.3
 20
-175.125333333
 30
0.0
  0
VERTEX
  8
0
 10
108.0
 20
-179.44
 30
0.0
  0
VERTEX
  8
0
 10
111.0
 20
-179.44
 30
0.0
  0
VERTEX
  8
0
 10
114.0
 20
-179.44
 30
0.0
  0
VERTEX
  8
0
 10
114.0
 20
-183.754666667
 30
0.0
  0
VERTEX
  8
0
 10
114.0
 20
-188.069333333
 30
0.0
  0
VERTEX
  8
0
 10
110.2625
 20
-186.990666667
 30
0.0
  0
VERTEX
  8
0
 10
106.525
 20
-185.912
 30
0.0
  0
VERTEX
  8
0
 10
102.7875
 20
-184.833333333
 30
0.0
  0
VERTEX
  8
0
 10
99.05
 20
-183.754666667
 30
0.0
  0
VERTEX
  8
0
 10
101.155555556
 20
-188.069333333
 30
0.0
  0
VERTEX
  8
0
 10
103.261111111
 20
-192.384
 30
0.0
  0
VERTEX
  8
0
 10
105.366666667
 20
-196.698666667
 30
0.0
  0
VERTEX
  8
0
 10
107.472222222
 20
-201.013333333
 30
0.0
  0
VERTEX
  8
0
 10
109.577777778
 20
-205.328
 30
0.0
  0
VERTEX
  8
0
 10
111.683333333
 20
-209.642666667
 30
0.0
  0
VERTEX
  8
0
 10
113.788888889
 20
-213.957333333
 30
0.0
  0
VERTEX
  8
0
 10
115.894444444
 20
-218.272
 30
0.0
  0
VERTEX
  8
0
 10
118.0
 20
-222.586666667
 30
0.0
  0
VERTEX
  8
0
 10
121.0
 20
-222.586666667
 30
0.0
  0
VERTEX
  8
0
 10
124.0
 20
-222.586666667
 30
0.0
  0
VERTEX
  8
0
 10
124.0
 20
-226.901333333
 30
0.0
  0
VERTEX
  8
0
 10
124.0
 20
-231.216
 30
0.0
  0
VERTEX
  8
0
 10
119.35
 20
-230.137333333
 30
0.0
  0
VERTEX
  8
0
 10
114.7
 20
-229.058666667
 30
0.0
  0
VERTEX
  8
0
 10
110.05
 20
-227.98
 30
0.0
  0
VERTEX
  8
0
 10
105.4
 20
-226.901333333
 30
0.0
  0
VERTEX
  8
0
 10
107.911111111
 20
-231.216
 30
0.0
  0
VERTEX
  8
0
 10
110.422222222
 20
-235.530666667
 30
0.0
  0
VERTEX
  8
0
 10
112.933333333
 20
-239.845333333
 30
0.0
  0
VERTEX
  8
0
 10
115.444444444
 20
-244.16
 30
0.0
  0
VERTEX
  8
0
 10
117.955555556
 20
-248.474666667
 30
0.0
  0
VERTEX
  8
0
 10
120.466666667
 20
-252.789333333
 30
0.0
  0
VERTEX
  8
0
 10
122.977777778
 20
-257.104
 30
0.0
  0
VERTEX
  8
0
 10
125.488888889
 20
-261.418666667
 30
0.0
  0
VERTEX
  8
0
 10
128.0
 20
-265.733333333
 30
0.0
  0
VERTEX
  8
0
 10
131.0
 20
-265.733333333
 30
0.0
  0
VERTEX
  8
0
 10
134.0
 20
-265.733333333
 30
0.0
  0
VERTEX
  8
0
 10
136.3
 20
-270.048
 30
0.0
  0
VERTEX
  8
0
 10
138.6
 20
-274.362666667
 30
0.0
  0
VERTEX
  8
0
 10
140.9
 20
-278.677333333
 30
0.0
  0
VERTEX
  8
0
 10
143.2
 20
-282.992
 30
0.0
  0
VERTEX
  8
0
 10
145.5
 20
-287.306666667
 30
0.0
  0
VERTEX
  8
0
 10
147.8
 20
-291.621333333
 30
0.0
  0
VERTEX
  8
0
 10
150.1
 20
-295.936
 30
0.0
  0
VERTEX
  8
0
 10
152.4
 20
-300.250666667
 30
0.0
  0
VERTEX
  8
0
 10
154.7
 20
-304.565333333
 30
0.0
  0
VERTEX
  8
0
 10
157.0
 20
-308.88
 30
0.0
  0
VERTEX
  8
0
 10
152.032258065
 20
-308.88
 30
0.0
  0
VERTEX
  8
0
 10
147.064516129
 20
-308.88
 30
0.0
  0
VERTEX
  8
0
 10
142.096774194
 20
-308.88
 30
0.0
  0
VERTEX
  8
0
 10
137.129032258
 20
-308.88
 30
0.0
  0
VERTEX
  8
0
 10
132.161290323
 20
-308.88
 30
0.0
  0
VERTEX
  8
0
 10
127.193548387
 20
-308.88
 30
0.0
  0
VERTEX
  8
0
 10
122.225806452
 20
-308.88
 30
0.0
  0
VERTEX
  8
0
 10
117.258064516
 20
-308.88
 30
0.0
  0
VERTEX
  8
0
 10
112.290322581
 20
-308.88
 30
0.0
  0
VERTEX
  8
0
 10
107.322580645
 20
-308.88
 30
0.0
  0
VERTEX
  8
0
 10
102.35483871
 20
-308.88
 30
0.0
  0
VERTEX
  8
0
 10
97.3870967742
 20
-308.88
 30
0.0
  0
VERTEX
  8
0
 10
92.4193548387
 20
-308.88
 30
0.0
  0
VERTEX
  8
0
 10
87.4516129032
 20
-308.88
 30
0.0
  0
VERTEX
  8
0
 10
82.4838709677
 20
-308.88
 30
0.0
  0
VERTEX
  8
0
 10
77.5161290323
 20
-308.88
 30
0.0
  0
VERTEX
  8
0
 10
72.5483870968
 20
-308.88
 30
0.0
  0
VERTEX
  8
0
 10
67.5806451613
 20
-308.88
 30
0.0
  0
VERTEX
  8
0
 10
62.6129032258
 20
-308.88
 30
0.0
  0
VERTEX
  8
0
 10
57.6451612903
 20
-308.88
 30
0.0
  0
VERTEX
  8
0
 10
52.6774193548
 20
-308.88
 30
0.0
  0
VERTEX
  8
0
 10
47.7096774194
 20
-308.88
 30
0.0
  0
VERTEX
  8
0
 10
42.7419354839
 20
-308.88
 30
0.0
  0
VERTEX
  8
0
 10
37.7741935484
 20
-308.88
 30
0.0
  0
VERTEX
  8
0
 10
32.8064516129
 20
-308.88
 30
0.0
  0
VERTEX
  8
0
 10
27.8387096774
 20
-308.88
 30
0.0
  0
VERTEX
  8
0
 10
22.8709677419
 20
-308.88
 30
0.0
  0
VERTEX
  8
0
 10
17.9032258065
 20
-308.88
 30
0.0
  0
VERTEX
  8
0
 10
12.935483871
 20
-308.88
 30
0.0
  0
VERTEX
  8
0
 10
7.96774193548
 20
-308.88
 30
0.0
  0
VERTEX
  8
0
 10
3.0
 20
-308.88
 30
0.0
  0
VERTEX
  8
0
 10
5.3
 20
-304.565333333
 30
0.0
  0
VERTEX
  8
0
 10
7.6
 20
-300.250666667
 30
0.0
  0
VERTEX
  8
0
 10
9.9
 20
-295.936
 30
0.0
  0
VERTEX
  8
0
 10
12.2
 20
-291.621333333
 30
0.0
  0
VERTEX
  8
0
 10
14.5
 20
-287.306666667
 30
0.0
  0
VERTEX
  8
0
 10
16.8
 20
-282.992
 30
0.0
  0
VERTEX
  8
0
 10
19.1
 20
-278.677333333
 30
0.0
  0
VERTEX
  8
0
 10
21.4
 20
-274.362666667
 30
0.0
  0
VERTEX
  8
0
 10
23.7
 20
-270.048
 30
0.0
  0
VERTEX
  8
0
 10
26.0
 20
-265.733333333
 30
0.0
  0
VERTEX
  8
0
 10
29.0
 20
-265.733333333
 30
0.0
  0
VERTEX
  8
0
 10
32.0
 20
-265.733333333
 30
0.0
  0
VERTEX
  8
0
 10
34.5111111111
 20
-261.418666667
 30
0.0
  0
VERTEX
  8
0
 10
37.0222222222
 20
-257.104
 30
0.0
  0
VERTEX
  8
0
 10
39.5333333333
 20
-252.789333333
 30
0.0
  0
VERTEX
  8
0
 10
42.0444444444
 20
-248.474666667
 30
0.0
  0
VERTEX
  8
0
 10
44.5555555556
 20
-244.16
 30
0.0
  0
VERTEX
  8
0
 10
47.0666666667
 20
-239.845333333
 30
0.0
  0
VERTEX
  8
0
 10
49.5777777778
 20
-235.530666667
 30
0.0
  0
VERTEX
  8
0
 10
52.0888888889
 20
-231.216
 30
0.0
  0
VERTEX
  8
0
 10
54.6
 20
-226.901333333
 30
0.0
  0
VERTEX
  8
0
 10
49.95
 20
-227.98
 30
0.0
  0
VERTEX
  8
0
 10
45.3
 20
-229.058666667
 30
0.0
  0
VERTEX
  8
0
 10
40.65
 20
-230.137333333
 30
0.0
  0
VERTEX
  8
0
 10
36.0
 20
-231.216
 30
0.0
  0
VERTEX
  8
0
 10
36.0
 20
-226.901333333
 30
0.0
  0
VERTEX
  8
0
 10
36.0
 20
-222.586666667
 30
0.0
  0
VERTEX
  8
0
 10
39.0
 20
-222.586666667
 30
0.0
  0
VERTEX
  8
0
 10
42.0
 20
-222.586666667
 30
0.0
  0
VERTEX
  8
0
 10
44.1055555556
 20
-218.272
 30
0.0
  0
VERTEX
  8
0
 10
46.2111111111
 20
-213.957333333
 30
0.0
  0
VERTEX
  8
0
 10
48.3166666667
 20
-209.642666667
 30
0.0
  0
VERTEX
  8
0
 10
50.4222222222
 20
-205.328
 30
0.0
  0
VERTEX
  8
0
 10
52.5277777778
 20
-201.013333333
 30
0.0
  0
VERTEX
  8
0
 10
54.6333333333
 20
-196.698666667
 30
0.0
  0
VERTEX
  8
0
 10
56.7388888889
 20
-192.384
 30
0.0
  0
VERTEX
  8
0
 10
58.8444444444
 20
-188.069333333
 30
0.0
  0
VERTEX
  8
0
 10
60.95
 20
-183.754666667
 30
0.0
  0
VERTEX
  8
0
 10
57.2125
 20
-184.833333333
 30
0.0
  0
VERTEX
  8
0
 10
53.475
 20
-185.912
 30
0.0
  0
VERTEX
  8
0
 10
49.7375
 20
-186.990666667
 30
0.0
  0
VERTEX
  8
0
 10
46.0
 20
-188.069333333
 30
0.0
  0
VERTEX
  8
0
 10
46.0
 20
-183.754666667
 30
0.0
  0
VERTEX
  8
0
 10
46.0
 20
-179.44
 30
0.0
  0
VERTEX
  8
0
 10
49.0
 20
-179.44
 30
0.0
  0
VERTEX
  8
0
 10
52.0
 20
-179.44
 30
0.0
  0
VERTEX
  8
0
 10
53.7
 20
-175.125333333
 30
0.0
  0
VERTEX
  8
0
 10
55.4
 20
-170.810666667
 30
0.0
  0
VERTEX
  8
0
 10
57.1
 20
-166.496
 30
0.0
  0
VERTEX
  8
0
 10
58.8
 20
-162.181333333
 30
0.0
  0
VERTEX
  8
0
 10
60.5
 20
-157.866666667
 30
0.0
  0
VERTEX
  8
0
 10
62.2
 20
-153.552
 30
0.0
  0
VERTEX
  8
0
 10
63.9
 20
-149.237333333
 30
0.0
  0
VERTEX
  8
0
 10
65.6
 20
-144.922666667
 30
0.0
  0
VERTEX
  8
0
 10
67.3
 20
-140.608
 30
0.0
  0
VERTEX
  8
0
 10
63.5333333333
 20
-142.046222222
 30
0.0
  0
VERTEX
  8
0
 10
59.7666666667
 20
-143.484444444
 30
0.0
  0
VERTEX
  8
0
 10
56.0
 20
-144.922666667
 30
0.0
  0
VERTEX
  8
0
 10
56.0
 20
-140.608
 30
0.0
  0
VERTEX
  8
0
 10
56.0
 20
-136.293333333
 30
0.0
  0
VERTEX
  8
0
 10
59.0
 20
-136.293333333
 30
0.0
  0
VERTEX
  8
0
 10
62.0
 20
-136.293333333
 30
0.0
  0
VERTEX
  8
0
 10
63.2944444444
 20
-131.978666667
 30
0.0
  0
VERTEX
  8
0
 10
64.5888888889
 20
-127.664
 30
0.0
  0
VERTEX
  8
0
 10
65.8833333333
 20
-123.349333333
 30
0.0
  0
VERTEX
  8
0
 10
67.1777777778
 20
-119.034666667
 30
0.0
  0
VERTEX
  8
0
 10
68.4722222222
 20
-114.72
 30
0.0
  0
VERTEX
  8
0
 10
69.7666666667
 20
-110.405333333
 30
0.0
  0
VERTEX
  8
0
 10
71.0611111111
 20
-106.090666667
 30
0.0
  0
VERTEX
  8
0
 10
72.3555555556
 20
-101.776
 30
0.0
  0
VERTEX
  8
0
 10
73.65
 20
-97.4613333333
 30
0.0
  0
VERTEX
  8
0
 10
69.825
 20
-99.6186666667
 30
0.0
  0
VERTEX
  8
0
 10
66.0
 20
-101.776
 30
0.0
  0
VERTEX
  8
0
 10
66.0
 20
-97.4613333333
 30
0.0
  0
VERTEX
  8
0
 10
66.0
 20
-93.1466666667
 30
0.0
  0
VERTEX
  8
0
 10
69.0
 20
-93.1466666667
 30
0.0
  0
VERTEX
  8
0
 10
72.0
 20
-93.1466666667
 30
0.0
  0
VERTEX
  8
0
 10
72.2222222222
 20
-88.3525925926
 30
0.0
  0
VERTEX
  8
0
 10
72.4444444444
 20
-83.5585185185
 30
0.0
  0
VERTEX
  8
0
 10
72.6666666667
 20
-78.7644444444
 30
0.0
  0
VERTEX
  8
0
 10
72.8888888889
 20
-73.9703703704
 30
0.0
  0
VERTEX
  8
0
 10
73.1111111111
 20
-69.1762962963
 30
0.0
  0
VERTEX
  8
0
 10
73.3333333333
 20
-64.3822222222
 30
0.0
  0
VERTEX
  8
0
 10
73.5555555556
 20
-59.5881481481
 30
0.0
  0
VERTEX
  8
0
 10
73.7777777778
 20
-54.7940740741
 30
0.0
  0
VERTEX
  8
0
 10
74.0
 20
-50.0
 30
0.0
  0
SEQEND
  8
0
  0
POLYLINE
  8
0
 62
0
 70
1
 66
1
 10
0.0
 20
0.0
 30
0.0
  0
VERTEX
  8
0
 10
176.0
 20
-308.88
 30
0.0
  0
VERTEX
  8
0
 10
179.0
 20
-308.88
 30
0.0
  0
VERTEX
  8
0
 10
182.0
 20
-308.88
 30
0.0
  0
VERTEX
  8
0
 10
182.222222222
 20
-304.085925926
 30
0.0
  0
VERTEX
  8
0
 10
182.444444444
 20
-299.291851852
 30
0.0
  0
VERTEX
  8
0
 10
182.666666667
 20
-294.497777778
 30
0.0
  0
VERTEX
  8
0
 10
182.888888889
 20
-289.703703704
 30
0.0
  0
VERTEX
  8
0
 10
183.111111111
 20
-284.90962963
 30
0.0
  0
VERTEX
  8
0
 10
183.333333333
 20
-280.115555556
 30
0.0
  0
VERTEX
  8
0
 10
183.555555556
 20
-275.321481481
 30
0.0
  0
VERTEX
  8
0
 10
183.777777778
 20
-270.527407407
 30
0.0
  0
VERTEX
  8
0
 10
184.0
 20
-265.733333333
 30
0.0
  0
VERTEX
  8
0
 10
187.0
 20
-265.733333333
 30
0.0
  0
VERTEX
  8
0
 10
190.0
 20
-265.733333333
 30
0.0
  0
VERTEX
  8
0
 10
190.0
 20
-261.418666667
 30
0.0
  0
VERTEX
  8
0
 10
190.0
 20
-257.104
 30
0.0
  0
VERTEX
  8
0
 10
186.175
 20
-259.261333333
 30
0.0
  0
VERTEX
  8
0
 10
182.35
 20
-261.418666667
 30
0.0
  0
VERTEX
  8
0
 10
183.644444444
 20
-257.104
 30
0.0
  0
VERTEX
  8
0
 10
184.938888889
 20
-252.789333333
 30
0.0
  0
VERTEX
  8
0
 10
186.233333333
 20
-248.474666667
 30
0.0
  0
VERTEX
  8
0
 10
187.527777778
 20
-244.16
 30
0.0
  0
VERTEX
  8
0
 10
188.822222222
 20
-239.845333333
 30
0.0
  0
VERTEX
  8
0
 10
190.116666667
 20
-235.530666667
 30
0.0
  0
VERTEX
  8
0
 10
191.411111111
 20
-231.216
 30
0.0
  0
VERTEX
  8
0
 10
192.705555556
 20
-226.901333333
 30
0.0
  0
VERTEX
  8
0
 10
194.0
 20
-222.586666667
 30
0.0
  0
VERTEX
  8
0
 10
197.0
 20
-222.586666667
 30
0.0
  0
VERTEX
  8
0
 10
200.0
 20
-222.586666667
 30
0.0
  0
VERTEX
  8
0
 10
200.0
 20
-218.272
 30
0.0
  0
VERTEX
  8
0
 10
200.0
 20
-213.957333333
 30
0.0
  0
VERTEX
  8
0
 10
196.233333333
 20
-215.395555556
 30
0.0
  0
VERTEX
  8
0
 10
192.466666667
 20
-216.833777778
 30
0.0
  0
VERTEX
  8
0
 10
188.7
 20
-218.272
 30
0.0
  0
VERTEX
  8
0
 10
190.4
 20
-213.957333333
 30
0.0
  0
VERTEX
  8
0
 10
192.1
 20
-209.642666667
 30
0.0
  0
VERTEX
  8
0
 10
193.8
 20
-205.328
 30
0.0
  0
VERTEX
  8
0
 10
195.5
 20
-201.013333333
 30
0.0
  0
VERTEX
  8
0
 10
197.2
 20
-196.698666667
 30
0.0
  0
VERTEX
  8
0
 10
198.9
 20
-192.384
 30
0.0
  0
VERTEX
  8
0
 10
200.6
 20
-188.069333333
 30
0.0
  0
VERTEX
  8
0
 10
202.3
 20
-183.754666667
 30
0.0
  0
VERTEX
  8
0
 10
204.0
 20
-179.44
 30
0.0
  0
VERTEX
  8
0
 10
207.0
 20
-179.44
 30
0.0
  0
VERTEX
  8
0
 10
210.0
 20
-179.44
 30
0.0
  0
VERTEX
  8
0
 10
210.0
 20
-175.125333333
 30
0.0
  0
VERTEX
  8
0
 10
210.0
 20
-170.810666667
 30
0.0
  0
VERTEX
  8
0
 10
206.2625
 20
-171.889333333
 30
0.0
  0
VERTEX
  8
0
 10
202.525
 20
-172.968
 30
0.0
  0
VERTEX
  8
0
 10
198.7875
 20
-174.046666667
 30
0.0
  0
VERTEX
  8
0
 10
195.05
 20
-175.125333333
 30
0.0
  0
VERTEX
  8
0
 10
197.155555556
 20
-170.810666667
 30
0.0
  0
VERTEX
  8
0
 10
199.261111111
 20
-166.496
 30
0.0
  0
VERTEX
  8
0
 10
201.366666667
 20
-162.181333333
 30
0.0
  0
VERTEX
  8
0
 10
203.472222222
 20
-157.866666667
 30
0.0
  0
VERTEX
  8
0
 10
205.577777778
 20
-153.552
 30
0.0
  0
VERTEX
  8
0
 10
207.683333333
 20
-149.237333333
 30
0.0
  0
VERTEX
  8
0
 10
209.788888889
 20
-144.922666667
 30
0.0
  0
VERTEX
  8
0
 10
211.894444444
 20
-140.608
 30
0.0
  0
VERTEX
  8
0
 10
214.0
 20
-136.293333333
 30
0.0
  0
VERTEX
  8
0
 10
217.0
 20
-136.293333333
 30
0.0
  0
VERTEX
  8
0
 10
220.0
 20
-136.293333333
 30
0.0
  0
VERTEX
  8
0
 10
220.0
 20
-131.978666667
 30
0.0
  0
VERTEX
  8
0
 10
220.0
 20
-127.664
 30
0.0
  0
VERTEX
  8
0
 10
215.35
 20
-128.742666667
 30
0.0
  0
VERTEX
  8
0
 10
210.7
 20
-129.821333333
 30
0.0
  0
VERTEX
  8
0
 10
206.05
 20
-130.9
 30
0.0
  0
VERTEX
  8
0
 10
201.4
 20
-131.978666667
 30
0.0
  0
VERTEX
  8
0
 10
203.911111111
 20
-127.664
 30
0.0
  0
VERTEX
  8
0
 10
206.422222222
 20
-123.349333333
 30
0.0
  0
VERTEX
  8
0
 10
208.933333333
 20
-119.034666667
 30
0.0
  0
VERTEX
  8
0
 10
211.444444444
 20
-114.72
 30
0.0
  0
VERTEX
  8
0
 10
213.955555556
 20
-110.405333333
 30
0.0
  0
VERTEX
  8
0
 10
216.466666667
 20
-106.090666667
 30
0.0
  0
VERTEX
  8
0
 10
218.977777778
 20
-101.776
 30
0.0
  0
VERTEX
  8
0
 10
221.488888889
 20
-97.4613333333
 30
0.0
  0
VERTEX
  8
0
 10
224.0
 20
-93.1466666667
 30
0.0
  0
VERTEX
  8
0
 10
227.0
 20
-93.1466666667
 30
0.0
  0
VERTEX
  8
0
 10
230.0
 20
-93.1466666667
 30
0.0
  0
VERTEX
  8
0
 10
232.3
 20
-88.832
 30
0.0
  0
VERTEX
  8
0
 10
234.6
 20
-84.5173333333
 30
0.0
  0
VERTEX
  8
0
 10
236.9
 20
-80.2026666667
 30
0.0
  0
VERTEX
  8
0
 10
239.2
 20
-75.888
 30
0.0
  0
VERTEX
  8
0
 10
241.5
 20
-71.5733333333
 30
0.0
  0
VERTEX
  8
0
 10
243.8
 20
-67.2586666667
 30
0.0
  0
VERTEX
  8
0
 10
246.1
 20
-62.944
 30
0.0
  0
VERTEX
  8
0
 10
248.4
 20
-58.6293333333
 30
0.0
  0
VERTEX
  8
0
 10
250.7
 20
-54.3146666667
 30
0.0
  0
VERTEX
  8
0
 10
253.0
 20
-50.0
 30
0.0
  0
VERTEX
  8
0
 10
248.28671875
 20
-50.0
 30
0.0
  0
VERTEX
  8
0
 10
243.5734375
 20
-50.0
 30
0.0
  0
VERTEX
  8
0
 10
238.86015625
 20
-50.0
 30
0.0
  0
VERTEX
  8
0
 10
234.146875
 20
-50.0
 30
0.0
  0
VERTEX
  8
0
 10
229.43359375
 20
-50.0
 30
0.0
  0
VERTEX
  8
0
 10
224.7203125
 20
-50.0
 30
0.0
  0
VERTEX
  8
0
 10
220.00703125
 20
-50.0
 30
0.0
  0
VERTEX
  8
0
 10
215.29375
 20
-50.0
 30
0.0
  0
VERTEX
  8
0
 10
210.58046875
 20
-50.0
 30
0.0
  0
VERTEX
  8
0
 10
205.8671875
 20
-50.0
 30
0.0
  0
VERTEX
  8
0
 10
201.15390625
 20
-50.0
 30
0.0
  0
VERTEX
  8
0
 10
196.440625
 20
-50.0
 30
0.0
  0
VERTEX
  8
0
 10
191.72734375
 20
-50.0
 30
0.0
  0
VERTEX
  8
0
 10
187.0140625
 20
-50.0
 30
0.0
  0
VERTEX
  8
0
 10
182.30078125
 20
-50.0
 30
0.0
  0
VERTEX
  8
0
 10
177.5875
 20
-50.0
 30
0.0
  0
VERTEX
  8
0
 10
177.5875
 20
-54.9784615385
 30
0.0
  0
VERTEX
  8
0
 10
177.5875
 20
-59.9569230769
 30
0.0
  0
VERTEX
  8
0
 10
177.5875
 20
-64.9353846154
 30
0.0
  0
VERTEX
  8
0
 10
177.5875
 20
-69.9138461538
 30
0.0
  0
VERTEX
  8
0
 10
177.5875
 20
-74.8923076923
 30
0.0
  0
VERTEX
  8
0
 10
177.5875
 20
-79.8707692308
 30
0.0
  0
VERTEX
  8
0
 10
177.5875
 20
-84.8492307692
 30
0.0
  0
VERTEX
  8
0
 10
177.5875
 20
-89.8276923077
 30
0.0
  0
VERTEX
  8
0
 10
177.5875
 20
-94.8061538462
 30
0.0
  0
VERTEX
  8
0
 10
177.5875
 20
-99.7846153846
 30
0.0
  0
VERTEX
  8
0
 10
177.5875
 20
-104.763076923
 30
0.0
  0
VERTEX
  8
0
 10
177.5875
 20
-109.741538462
 30
0.0
  0
VERTEX
  8
0
 10
177.5875
 20
-114.72
 30
0.0
  0
VERTEX
  8
0
 10
177.5875
 20
-119.698461538
 30
0.0
  0
VERTEX
  8
0
 10
177.5875
 20
-124.676923077
 30
0.0
  0
VERTEX
  8
0
 10
177.5875
 20
-129.655384615
 30
0.0
  0
VERTEX
  8
0
 10
177.5875
 20
-134.633846154
 30
0.0
  0
VERTEX
  8
0
 10
177.5875
 20
-139.612307692
 30
0.0
  0
VERTEX
  8
0
 10
177.5875
 20
-144.590769231
 30
0.0
  0
VERTEX
  8
0
 10
177.5875
 20
-149.569230769
 30
0.0
  0
VERTEX
  8
0
 10
177.5875
 20
-154.547692308
 30
0.0
  0
VERTEX
  8
0
 10
177.5875
 20
-159.526153846
 30
0.0
  0
VERTEX
  8
0
 10
177.5875
 20
-164.504615385
 30
0.0
  0
VERTEX
  8
0
 10
177.5875
 20
-169.483076923
 30
0.0
  0
VERTEX
  8
0
 10
177.5875
 20
-174.461538462
 30
0.0
  0
VERTEX
  8
0
 10
177.5875
 20
-179.44
 30
0.0
  0
VERTEX
  8
0
 10
174.4125
 20
-179.44
 30
0.0
  0
VERTEX
  8
0
 10
174.4125
 20
-174.461538462
 30
0.0
  0
VERTEX
  8
0
 10
174.4125
 20
-169.483076923
 30
0.0
  0
VERTEX
  8
0
 10
174.4125
 20
-164.504615385
 30
0.0
  0
VERTEX
  8
0
 10
174.4125
 20
-159.526153846
 30
0.0
  0
VERTEX
  8
0
 10
174.4125
 20
-154.547692308
 30
0.0
  0
VERTEX
  8
0
 10
174.4125
 20
-149.569230769
 30
0.0
  0
VERTEX
  8
0
 10
174.4125
 20
-144.590769231
 30
0.0
  0
VERTEX
  8
0
 10
174.4125
 20
-139.612307692
 30
0.0
  0
VERTEX
  8
0
 10
174.4125
 20
-134.633846154
 30
0.0
  0
VERTEX
  8
0
 10
174.4125
 20
-129.655384615
 30
0.0
  0
VERTEX
  8
0
 10
174.4125
 20
-124.676923077
 30
0.0
  0
VERTEX
  8
0
 10
174.4125
 20
-119.698461538
 30
0.0
  0
VERTEX
  8
0
 10
174.4125
 20
-114.72
 30
0.0
  0
VERTEX
  8
0
 10
174.4125
 20
-109.741538462
 30
0.0
  0
VERTEX
  8
0
 10
174.4125
 20
-104.763076923
 30
0.0
  0
VERTEX
  8
0
 10
174.4125
 20
-99.7846153846
 30
0.0
  0
VERTEX
  8
0
 10
174.4125
 20
-94.8061538462
 30
0.0
  0
VERTEX
  8
0
 10
174.4125
 20
-89.8276923077
 30
0.0
  0
VERTEX
  8
0
 10
174.4125
 20
-84.8492307692
 30
0.0
  0
VERTEX
  8
0
 10
174.4125
 20
-79.8707692308
 30
0.0
  0
VERTEX
  8
0
 10
174.4125
 20
-74.8923076923
 30
0.0
  0
VERTEX
  8
0
 10
174.4125
 20
-69.9138461538
 30
0.0
  0
VERTEX
  8
0
 10
174.4125
 20
-64.9353846154
 30
0.0
  0
VERTEX
  8
0
 10
174.4125
 20
-59.9569230769
 30
0.0
  0
VERTEX
  8
0
 10
174.4125
 20
-54.9784615385
 30
0.0
  0
VERTEX
  8
0
 10
174.4125
 20
-50.0
 30
0.0
  0
VERTEX
  8
0
 10
169.69921875
 20
-50.0
 30
0.0
  0
VERTEX
  8
0
 10
164.9859375
 20
-50.0
 30
0.0
  0
VERTEX
  8
0
 10
160.27265625
 20
-50.0
 30
0.0
  0
VERTEX
  8
0
 10
155.559375
 20
-50.0
 30
0.0
  0
VERTEX
  8
0
 10
150.84609375
 20
-50.0
 30
0.0
  0
VERTEX
  8
0
 10
146.1328125
 20
-50.0
 30
0.0
  0
VERTEX
  8
0
 10
141.41953125
 20
-50.0
 30
0.0
  0
VERTEX
  8
0
 10
136.70625
 20
-50.0
 30
0.0
  0
VERTEX
  8
0
 10
131.99296875
 20
-50.0
 30
0.0
  0
VERTEX
  8
0
 10
127.2796875
 20
-50.0
 30
0.0
  0
VERTEX
  8
0
 10
122.56640625
 20
-50.0
 30
0.0
  0
VERTEX
  8
0
 10
117.853125
 20
-50.0
 30
0.0
  0
VERTEX
  8
0
 10
113.13984375
 20
-50.0
 30
0.0
  0
VERTEX
  8
0
 10
108.4265625
 20
-50.0
 30
0.0
  0
VERTEX
  8
0
 10
103.71328125
 20
-50.0
 30
0.0
  0
VERTEX
  8
0
 10
99.0
 20
-50.0
 30
0.0
  0
VERTEX
  8
0
 10
101.3
 20
-54.3146666667
 30
0.0
  0
VERTEX
  8
0
 10
103.6
 20
-58.6293333333
 30
0.0
  0
VERTEX
  8
0
 10
105.9
 20
-62.944
 30
0.0
  0
VERTEX
  8
0
 10
108.2
 20
-67.2586666667
 30
0.0
  0
VERTEX
  8
0
 10
110.5
 20
-71.5733333333
 30
0.0
  0
VERTEX
  8
0
 10
112.8
 20
-75.888
 30
0.0
  0
VERTEX
  8
0
 10
115.1
 20
-80.2026666667
 30
0.0
  0
VERTEX
  8
0
 10
117.4
 20
-84.5173333333
 30
0.0
  0
VERTEX
  8
0
 10
119.7
 20
-88.832
 30
0.0
  0
VERTEX
  8
0
 10
122.0
 20
-93.1466666667
 30
0.0
  0
VERTEX
  8
0
 10
125.0
 20
-93.1466666667
 30
0.0
  0
VERTEX
  8
0
 10
128.0
 20
-93.1466666667
 30
0.0
  0
VERTEX
  8
0
 10
130.511111111
 20
-97.4613333333
 30
0.0
  0
VERTEX
  8
0
 10
133.022222222
 20
-101.776
 30
0.0
  0
VERTEX
  8
0
 10
135.533333333
 20
-106.090666667
 30
0.0
  0
VERTEX
  8
0
 10
138.044444444
 20
-110.405333333
 30
0.0
  0
VERTEX
  8
0
 10
140.555555556
 20
-114.72
 30
0.0
  0
VERTEX
  8
0
 10
143.066666667
 20
-119.034666667
 30
0.0
  0
VERTEX
  8
0
 10
145.577777778
 20
-123.349333333
 30
0.0
  0
VERTEX
  8
0
 10
148.088888889
 20
-127.664
 30
0.0
  0
VERTEX
  8
0
 10
150.6
 20
-131.978666667
 30
0.0
  0
VERTEX
  8
0
 10
145.95
 20
-130.9
 30
0.0
  0
VERTEX
  8
0
 10
141.3
 20
-129.821333333
 30
0.0
  0
VERTEX
  8
0
 10
136.65
 20
-128.742666667
 30
0.0
  0
VERTEX
  8
0
 10
132.0
 20
-127.664
 30
0.0
  0
VERTEX
  8
0
 10
132.0
 20
-131.978666667
 30
0.0
  0
VERTEX
  8
0
 10
132.0
 20
-136.293333333
 30
0.0
  0
VERTEX
  8
0
 10
135.0
 20
-136.293333333
 30
0.0
  0
VERTEX
  8
0
 10
138.0
 20
-136.293333333
 30
0.0
  0
VERTEX
  8
0
 10
140.105555556
 20
-140.608
 30
0.0
  0
VERTEX
  8
0
 10
142.211111111
 20
-144.922666667
 30
0.0
  0
VERTEX
  8
0
 10
144.316666667
 20
-149.237333333
 30
0.0
  0
VERTEX
  8
0
 10
146.422222222
 20
-153.552
 30
0.0
  0
VERTEX
  8
0
 10
148.527777778
 20
-157.866666667
 30
0.0
  0
VERTEX
  8
0
 10
150.633333333
 20
-162.181333333
 30
0.0
  0
VERTEX
  8
0
 10
152.738888889
 20
-166.496
 30
0.0
  0
VERTEX
  8
0
 10
154.844444444
 20
-170.810666667
 30
0.0
  0
VERTEX
  8
0
 10
156.95
 20
-175.125333333
 30
0.0
  0
VERTEX
  8
0
 10
153.2125
 20
-174.046666667
 30
0.0
  0
VERTEX
  8
0
 10
149.475
 20
-172.968
 30
0.0
  0
VERTEX
  8
0
 10
145.7375
 20
-171.889333333
 30
0.0
  0
VERTEX
  8
0
 10
142.0
 20
-170.810666667
 30
0.0
  0
VERTEX
  8
0
 10
142.0
 20
-175.125333333
 30
0.0
  0
VERTEX
  8
0
 10
142.0
 20
-179.44
 30
0.0
  0
VERTEX
  8
0
 10
145.0
 20
-179.44
 30
0.0
  0
VERTEX
  8
0
 10
148.0
 20
-179.44
 30
0.0
  0
VERTEX
  8
0
 10
149.7
 20
-183.754666667
 30
0.0
  0
VERTEX
  8
0
 10
151.4
 20
-188.069333333
 30
0.0
  0
VERTEX
  8
0
 10
153.1
 20
-192.384
 30
0.0
  0
VERTEX
  8
0
 10
154.8
 20
-196.698666667
 30
0.0
  0
VERTEX
  8
0
 10
156.5
 20
-201.013333333
 30
0.0
  0
VERTEX
  8
0
 10
158.2
 20
-205.328
 30
0.0
  0
VERTEX
  8
0
 10
159.9
 20
-209.642666667
 30
0.0
  0
VERTEX
  8
0
 10
161.6
 20
-213.957333333
 30
0.0
  0
VERTEX
  8
0
 10
163.3
 20
-218.272
 30
0.0
  0
VERTEX
  8
0
 10
159.533333333
 20
-216.833777778
 30
0.0
  0
VERTEX
  8
0
 10
155.766666667
 20
-215.395555556
 30
0.0
  0
VERTEX
  8
0
 10
152.0
 20
-213.957333333
 30
0.0
  0
VERTEX
  8
0
 10
152.0
 20
-218.272
 30
0.0
  0
VERTEX
  8
0
 10
152.0
 20
-222.586666667
 30
0.0
  0
VERTEX
  8
0
 10
155.0
 20
-222.586666667
 30
0.0
  0
VERTEX
  8
0
 10
158.0
 20
-222.586666667
 30
0.0
  0
VERTEX
  8
0
 10
159.294444444
 20
-226.901333333
 30
0.0
  0
VERTEX
  8
0
 10
160.588888889
 20
-231.216
 30
0.0
  0
VERTEX
  8
0
 10
161.883333333
 20
-235.530666667
 30
0.0
  0
VERTEX
  8
0
 10
163.177777778
 20
-239.845333333
 30
0.0
  0
VERTEX
  8
0
 10
164.472222222
 20
-244.16
 30
0.0
  0
VERTEX
  8
0
 10
165.766666667
 20
-248.474666667
 30
0.0
  0
VERTEX
  8
0
 10
167.061111111
 20
-252.789333333
 30
0.0
  0
VERTEX
  8
0
 10
168.355555556
 20
-257.104
 30
0.0
  0
VERTEX
  8
0
 10
169.65
 20
-261.418666667
 30
0.0
  0
VERTEX
  8
0
 10
165.825
 20
-259.261333333
 30
0.0
  0
VERTEX
  8
0
 10
162.0
 20
-257.104
 30
0.0
  0
VERTEX
  8
0
 10
162.0
 20
-261.418666667
 30
0.0
  0
VERTEX
  8
0
 10
162.0
 20
-265.733333333
 30
0.0
  0
VERTEX
  8
0
 10
165.0
 20
-265.733333333
 30
0.0
  0
VERTEX
  8
0
 10
168.0
 20
-265.733333333
 30
0.0
  0
VERTEX
  8
0
 10
168.222222222
 20
-270.527407407
 30
0.0
  0
VERTEX
  8
0
 10
168.444444444
 20
-275.321481481
 30
0.0
  0
VERTEX
  8
0
 10
168.666666667
 20
-280.115555556
 30
0.0
  0
VERTEX
  8
0
 10
168.888888889
 20
-284.90962963
 30
0.0
  0
VERTEX
  8
0
 10
169.111111111
 20
-289.703703704
 30
0.0
  0
VERTEX
  8
0
 10
169.333333333
 20
-294.497777778
 30
0.0
  0
VERTEX
  8
0
 10
169.555555556
 20
-299.291851852
 30
0.0
  0
VERTEX
  8
0
 10
169.777777778
 20
-304.085925926
 30
0.0
  0
VERTEX
  8
0
 10
170.0
 20
-308.88
 30
0.0
  0
VERTEX
  8
0
 10
173.0
 20
-308.88
 30
0.0
  0
SEQEND
  8
0
  0
ENDSEC
  0
EOF
