<svg width="400.0mm" height="400.0mm" viewBox="0 0 400.0 400.0">
<g id="layer">
<path d="M 78.4125,50.0 78.4125,179.44 81.5875,179.44 81.5875,50.0 86.0,50.0 88.0,93.14666666666668 94.0,93.14666666666668 94.0,101.77600000000001 86.35,97.46133333333334 98.0,136.29333333333335 104.0,136.29333333333335 104.0,144.9226666666667 92.7,140.608 108.0,179.44 114.0,179.44 114.0,188.06933333333333 99.05,183.75466666666665 118.0,222.58666666666667 124.0,222.58666666666667 124.0,231.216 105.4,226.90133333333333 128.0,265.73333333333335 134.0,265.73333333333335 157.0,308.88 3.0,308.88 26.0,265.73333333333335 32.0,265.73333333333335 54.6,226.90133333333333 36.0,231.216 36.0,222.58666666666667 42.0,222.58666666666667 60.95,183.75466666666665 46.0,188.06933333333333 46.0,179.44 52.0,179.44 67.3,140.608 56.0,144.9226666666667 56.0,136.29333333333335 62.0,136.29333333333335 73.65,97.46133333333334 66.0,101.77600000000001 66.0,93.14666666666668 72.0,93.14666666666668 74.0,50.0 78.4125,50.0"
      id="tree1" style="fill:none;stroke:#008000"/>
<path d="M 176.0,308.88 182.0,308.88 184.0,265.73333333333335 190.0,265.73333333333335 190.0,257.104 182.35,261.41866666666664 194.0,222.58666666666664 200.0,222.58666666666664 200.0,213.9573333333333 188.7,218.272 204.0,179.44 210.0,179.44 210.0,170.81066666666666 195.05,175.12533333333334 214.0,136.29333333333332 220.0,136.29333333333332 220.0,127.66399999999999 201.4,131.97866666666667 224.0,93.14666666666665 230.0,93.14666666666665 253.0,50.0 177.5875,50.0 177.5875,179.44 174.4125,179.44 174.4125,50.0 99.0,50.0 122.0,93.14666666666665 128.0,93.14666666666665 150.6,131.97866666666667 132.0,127.66399999999999 132.0,136.29333333333332 138.0,136.29333333333332 156.95,175.12533333333334 142.0,170.81066666666666 142.0,179.44 148.0,179.44 163.3,218.272 152.0,213.9573333333333 152.0,222.58666666666664 158.0,222.58666666666664 169.65,261.41866666666664 162.0,257.104 162.0,265.73333333333335 168.0,265.73333333333335 170.0,308.88 176.0,308.88"
      id="tree2" style="fill:none;stroke:#008000"/>
</g>
</svg>
