<?xml version="1.0" encoding="utf-8"?>
<!-- Generator: Adobe Illustrator 21.0.2, SVG Export Plug-In . SVG Version: 6.00 Build 0)  -->
<svg version="1.1" id="Layer_1" xmlns="http://www.w3.org/2000/svg" xmlns:xlink="http://www.w3.org/1999/xlink" x="0px" y="0px"
	 viewBox="0 0 300 300" style="enable-background:new 0 0 300 300;" xml:space="preserve">
<style type="text/css">
	.st0{fill:#808080;}
</style>
<g>
	<g>
		<path class="st0" d="M99.9,95.6L92.6,94c2.2-7.3,7.6-11,15.5-11c4.7,0,8.2,0.9,10.7,3.2c2.5,2.2,4.1,5,4.1,8.8
			c0,4.7-2.5,8.2-7.9,10.1c6.3,1.6,9.1,5,9.1,11c0,4.1-1.6,7.6-4.7,9.8c-3.2,2.5-6.9,3.5-11.7,3.5c-4.4,0-7.9-0.9-11-2.8
			c-3.2-1.9-5-5-5.7-9.1l7.3-1.6c1.3,5,4.4,7.6,9.1,7.6c2.2,0,4.1-0.6,5.7-1.9c1.6-1.3,2.5-3.5,2.5-6c0-2.2-0.6-4.1-2.2-5.4
			c-1.6-1.3-4.1-2.2-7.9-2.2h-3.2v-5.4h3.2c2.2,0,3.8-0.3,5-0.6c1.3-0.3,2.2-0.9,2.8-2.2c0.6-1.3,1.3-2.5,1.3-4.4
			c0-2.2-0.6-3.8-1.9-5c-1.3-0.9-2.8-1.6-5-1.6C103.7,88.7,100.8,90.9,99.9,95.6z"/>
		<path class="st0" d="M164.5,94l-6.9,1.9c-1.3-4.7-3.8-7.3-7.6-7.3c-3.2,0-5.4,1.6-6.9,4.4c-1.6,2.8-2.2,7.3-2.5,13.2
			c2.2-4.4,5.7-6.6,10.7-6.6c3.8,0,7.3,1.3,9.8,4.1s4.1,6.3,4.1,10.7c0,4.7-1.6,8.2-4.4,11s-6.6,4.1-11.4,4.1c-5,0-9.1-1.9-12-5.4
			c-3.2-3.5-4.7-9.1-4.7-17s1.6-13.9,4.7-18.3c3.2-4.1,7.3-6.3,12.6-6.3c3.5,0,6.6,0.9,9.1,2.5C161.7,87.4,163.6,90.3,164.5,94z
			 M157,114.8c0-3.2-0.6-5.4-1.9-6.9c-1.3-1.6-3.2-2.2-5.4-2.2c-2.5,0-4.7,0.9-6,2.5c-1.3,1.9-2.2,3.8-2.2,6.6
			c0,2.5,0.6,4.7,2.2,6.6c1.6,1.6,3.5,2.5,6,2.5C154.5,124,157,120.8,157,114.8z"/>
		<path class="st0" d="M203.3,106c0,8.5-1.3,14.5-4.1,18.3c-2.8,3.8-6.9,5.7-12.3,5.7c-11,0-16.4-7.6-16.4-23
			c0-8.5,1.3-14.5,4.1-18.3c2.8-3.8,6.9-5.7,12.3-5.7C197.7,83,203.3,90.6,203.3,106z M194.5,106.3c0-6.6-0.6-11.4-1.9-13.9
			c-1.3-2.5-3.2-4.1-6-4.1c-2.5,0-4.4,1.3-6,3.8c-1.6,2.5-1.9,7.3-1.9,13.9c0,7.3,0.6,12,2.2,14.5c1.6,2.5,3.5,3.5,5.7,3.5
			c2.5,0,4.7-1.3,6-4.1C193.9,117.7,194.5,113,194.5,106.3z"/>
		<path class="st0" d="M228.2,93.7c0,2.8-0.9,5.4-3.2,7.6c-2.2,2.2-4.4,3.2-7.3,3.2c-2.8,0-5.4-0.9-7.3-3.2
			c-1.9-2.2-3.2-4.4-3.2-7.6c0-2.8,0.9-5.4,3.2-7.6c1.9-2.2,4.4-3.2,7.3-3.2c2.8,0,5.4,0.9,7.3,3.2C227,88.4,228.2,90.6,228.2,93.7z
			 M222.9,93.7c0-1.9-0.6-3.2-1.6-4.4c-0.9-1.3-2.2-1.6-3.8-1.6c-1.6,0-2.5,0.6-3.8,1.9c-1.3,1.3-1.3,2.2-1.3,4.1
			c0,1.6,0.6,3.2,1.6,4.4c0.9,1.3,2.2,1.9,3.8,1.9c1.3,0,2.5-0.6,3.8-1.9C222.9,96.9,222.9,95.3,222.9,93.7z"/>
		<path class="st0" d="M113.5,146.1h5.4l5,17.3l5-17.3h4.7l-7.6,24.3h-5L113.5,146.1z"/>
		<path class="st0" d="M142.5,142.9h-6v-5.4h6V142.9z M136.8,146.1h5.7v24.3h-5.7V146.1z"/>
		<path class="st0" d="M168.6,159h-15.5c0,3.2,0.6,5.4,1.6,6.6c0.9,0.9,2.2,1.6,3.8,1.6c2.5,0,4.1-1.6,4.7-4.4l5,0.6
			c-1.3,5-4.7,7.6-10.1,7.6c-3.2,0-6-0.9-7.9-3.2s-2.8-5-2.8-9.1c0-4.1,0.9-7.3,2.8-9.8s4.7-3.5,7.9-3.5c2.2,0,4.1,0.6,5.7,1.6
			c1.6,1.3,2.5,2.5,3.5,4.4C168,153.3,168.6,155.8,168.6,159z M163,155.5c0-4.4-1.6-6.3-4.7-6.3c-2.8,0-4.4,2.2-4.7,6.3H163z"/>
		<path class="st0" d="M169.9,146.1h5.4l4.1,16.7l3.8-16.7h5l3.8,16.7l4.4-16.7h4.4l-6.6,24.3h-4.7l-4.1-16.7l-3.8,16.7h-4.7
			L169.9,146.1z"/>
	</g>
	<path class="st0" d="M81.3,131.9v13.6c0,0-41,16.4,13.6,35.3c0,0,30,8.2,59.9,8.2v-11l41,19.2l-41,21.8v-13.6c0,0-106.3,0-106.3-41
		C48.5,164.4,48.5,142.6,81.3,131.9z"/>
	<path class="st0" d="M201.1,178.2c2.8,0,32.8-8.2,32.8-21.8c0-13.6-11-16.4-11-16.4v-8.2c0,0,27.1,5.4,27.1,30c0,0,0,20.5-30,30
		L201.1,178.2z"/>
</g>
</svg>
